<mxfile host="Electron" modified="2024-03-09T17:35:09.406Z" agent="Mozilla/5.0 (X11; Linux x86_64) AppleWebKit/537.36 (KHTML, like Gecko) draw.io/23.1.5 Chrome/120.0.6099.109 Electron/28.1.0 Safari/537.36" etag="VrKlOgoa8gvKs5Ebl1lY" version="23.1.5" type="device">
  <diagram name="Page-1" id="qUvdDxNb0P5yGXGCa5dm">
    <mxGraphModel dx="2363" dy="888" grid="1" gridSize="10" guides="1" tooltips="1" connect="1" arrows="1" fold="1" page="1" pageScale="1" pageWidth="827" pageHeight="1169" math="0" shadow="0">
      <root>
        <mxCell id="0" />
        <mxCell id="1" parent="0" />
        <mxCell id="O7NxYULZaVECAKK6ooVG-9" style="edgeStyle=orthogonalEdgeStyle;rounded=0;orthogonalLoop=1;jettySize=auto;html=1;exitX=1;exitY=0.25;exitDx=0;exitDy=0;entryX=0;entryY=0.25;entryDx=0;entryDy=0;" edge="1" parent="1" source="O7NxYULZaVECAKK6ooVG-1" target="O7NxYULZaVECAKK6ooVG-3">
          <mxGeometry relative="1" as="geometry" />
        </mxCell>
        <mxCell id="O7NxYULZaVECAKK6ooVG-12" style="edgeStyle=orthogonalEdgeStyle;rounded=0;orthogonalLoop=1;jettySize=auto;html=1;exitX=1;exitY=0.5;exitDx=0;exitDy=0;entryX=0;entryY=0.25;entryDx=0;entryDy=0;" edge="1" parent="1" source="O7NxYULZaVECAKK6ooVG-1" target="O7NxYULZaVECAKK6ooVG-2">
          <mxGeometry relative="1" as="geometry">
            <Array as="points">
              <mxPoint x="210" y="170" />
              <mxPoint x="210" y="235" />
            </Array>
          </mxGeometry>
        </mxCell>
        <mxCell id="O7NxYULZaVECAKK6ooVG-101" style="edgeStyle=orthogonalEdgeStyle;rounded=0;orthogonalLoop=1;jettySize=auto;html=1;exitX=1;exitY=0.25;exitDx=0;exitDy=0;entryX=0.5;entryY=1;entryDx=0;entryDy=0;" edge="1" parent="1" source="O7NxYULZaVECAKK6ooVG-1" target="O7NxYULZaVECAKK6ooVG-73">
          <mxGeometry relative="1" as="geometry" />
        </mxCell>
        <mxCell id="O7NxYULZaVECAKK6ooVG-102" style="edgeStyle=orthogonalEdgeStyle;rounded=0;orthogonalLoop=1;jettySize=auto;html=1;exitX=1;exitY=0.25;exitDx=0;exitDy=0;entryX=0;entryY=0.5;entryDx=0;entryDy=0;" edge="1" parent="1" source="O7NxYULZaVECAKK6ooVG-1" target="O7NxYULZaVECAKK6ooVG-74">
          <mxGeometry relative="1" as="geometry">
            <Array as="points">
              <mxPoint x="220" y="155" />
              <mxPoint x="220" y="120" />
              <mxPoint x="300" y="120" />
              <mxPoint x="300" y="70" />
            </Array>
          </mxGeometry>
        </mxCell>
        <mxCell id="O7NxYULZaVECAKK6ooVG-107" style="edgeStyle=orthogonalEdgeStyle;rounded=0;orthogonalLoop=1;jettySize=auto;html=1;exitX=1;exitY=0.5;exitDx=0;exitDy=0;entryX=0;entryY=0.5;entryDx=0;entryDy=0;" edge="1" parent="1" source="O7NxYULZaVECAKK6ooVG-1" target="O7NxYULZaVECAKK6ooVG-105">
          <mxGeometry relative="1" as="geometry">
            <Array as="points">
              <mxPoint x="210" y="170" />
              <mxPoint x="210" y="330" />
            </Array>
          </mxGeometry>
        </mxCell>
        <mxCell id="O7NxYULZaVECAKK6ooVG-1" value="ICM20948&lt;br&gt;Driver" style="rounded=1;whiteSpace=wrap;html=1;fillColor=#d5e8d4;strokeColor=#82b366;" vertex="1" parent="1">
          <mxGeometry x="80" y="140" width="120" height="60" as="geometry" />
        </mxCell>
        <mxCell id="O7NxYULZaVECAKK6ooVG-16" style="edgeStyle=orthogonalEdgeStyle;rounded=0;orthogonalLoop=1;jettySize=auto;html=1;exitX=1;exitY=0.5;exitDx=0;exitDy=0;entryX=0;entryY=0.75;entryDx=0;entryDy=0;" edge="1" parent="1" source="O7NxYULZaVECAKK6ooVG-2" target="O7NxYULZaVECAKK6ooVG-14">
          <mxGeometry relative="1" as="geometry" />
        </mxCell>
        <mxCell id="O7NxYULZaVECAKK6ooVG-2" value="Mag governor" style="rounded=1;whiteSpace=wrap;html=1;fillColor=#d5e8d4;strokeColor=#82b366;" vertex="1" parent="1">
          <mxGeometry x="240" y="220" width="120" height="60" as="geometry" />
        </mxCell>
        <mxCell id="O7NxYULZaVECAKK6ooVG-15" style="edgeStyle=orthogonalEdgeStyle;rounded=0;orthogonalLoop=1;jettySize=auto;html=1;exitX=1;exitY=0.5;exitDx=0;exitDy=0;entryX=0;entryY=0.25;entryDx=0;entryDy=0;" edge="1" parent="1" source="O7NxYULZaVECAKK6ooVG-3" target="O7NxYULZaVECAKK6ooVG-14">
          <mxGeometry relative="1" as="geometry" />
        </mxCell>
        <mxCell id="O7NxYULZaVECAKK6ooVG-3" value="IMU governor" style="rounded=1;whiteSpace=wrap;html=1;fillColor=#d5e8d4;strokeColor=#82b366;" vertex="1" parent="1">
          <mxGeometry x="240" y="140" width="120" height="60" as="geometry" />
        </mxCell>
        <mxCell id="O7NxYULZaVECAKK6ooVG-10" style="edgeStyle=orthogonalEdgeStyle;rounded=0;orthogonalLoop=1;jettySize=auto;html=1;exitX=1;exitY=0.75;exitDx=0;exitDy=0;entryX=0;entryY=0.75;entryDx=0;entryDy=0;" edge="1" parent="1" source="O7NxYULZaVECAKK6ooVG-4" target="O7NxYULZaVECAKK6ooVG-2">
          <mxGeometry relative="1" as="geometry" />
        </mxCell>
        <mxCell id="O7NxYULZaVECAKK6ooVG-13" style="edgeStyle=orthogonalEdgeStyle;rounded=0;orthogonalLoop=1;jettySize=auto;html=1;exitX=1;exitY=0.5;exitDx=0;exitDy=0;entryX=0;entryY=0.75;entryDx=0;entryDy=0;" edge="1" parent="1" source="O7NxYULZaVECAKK6ooVG-4" target="O7NxYULZaVECAKK6ooVG-3">
          <mxGeometry relative="1" as="geometry" />
        </mxCell>
        <mxCell id="O7NxYULZaVECAKK6ooVG-4" value="MAV dummy&lt;br&gt;sensor" style="rounded=1;whiteSpace=wrap;html=1;" vertex="1" parent="1">
          <mxGeometry x="80" y="220" width="120" height="60" as="geometry" />
        </mxCell>
        <mxCell id="O7NxYULZaVECAKK6ooVG-18" value="" style="edgeStyle=orthogonalEdgeStyle;rounded=0;orthogonalLoop=1;jettySize=auto;html=1;" edge="1" parent="1" source="O7NxYULZaVECAKK6ooVG-14" target="O7NxYULZaVECAKK6ooVG-17">
          <mxGeometry relative="1" as="geometry" />
        </mxCell>
        <mxCell id="O7NxYULZaVECAKK6ooVG-14" value="Attitude estimator" style="rounded=1;whiteSpace=wrap;html=1;fillColor=#d5e8d4;strokeColor=#82b366;" vertex="1" parent="1">
          <mxGeometry x="400" y="180" width="120" height="60" as="geometry" />
        </mxCell>
        <mxCell id="O7NxYULZaVECAKK6ooVG-20" value="" style="edgeStyle=orthogonalEdgeStyle;rounded=0;orthogonalLoop=1;jettySize=auto;html=1;" edge="1" parent="1" source="O7NxYULZaVECAKK6ooVG-17" target="O7NxYULZaVECAKK6ooVG-19">
          <mxGeometry relative="1" as="geometry" />
        </mxCell>
        <mxCell id="O7NxYULZaVECAKK6ooVG-17" value="Attitude controller" style="rounded=1;whiteSpace=wrap;html=1;fillColor=#d5e8d4;strokeColor=#82b366;" vertex="1" parent="1">
          <mxGeometry x="560" y="180" width="120" height="60" as="geometry" />
        </mxCell>
        <mxCell id="O7NxYULZaVECAKK6ooVG-22" value="" style="edgeStyle=orthogonalEdgeStyle;rounded=0;orthogonalLoop=1;jettySize=auto;html=1;" edge="1" parent="1" source="O7NxYULZaVECAKK6ooVG-19" target="O7NxYULZaVECAKK6ooVG-21">
          <mxGeometry relative="1" as="geometry" />
        </mxCell>
        <mxCell id="O7NxYULZaVECAKK6ooVG-19" value="Motor mixing" style="rounded=1;whiteSpace=wrap;html=1;fillColor=#d5e8d4;strokeColor=#82b366;" vertex="1" parent="1">
          <mxGeometry x="720" y="180" width="120" height="60" as="geometry" />
        </mxCell>
        <mxCell id="O7NxYULZaVECAKK6ooVG-33" value="" style="edgeStyle=orthogonalEdgeStyle;rounded=0;orthogonalLoop=1;jettySize=auto;html=1;" edge="1" parent="1" source="O7NxYULZaVECAKK6ooVG-21" target="O7NxYULZaVECAKK6ooVG-32">
          <mxGeometry relative="1" as="geometry" />
        </mxCell>
        <mxCell id="O7NxYULZaVECAKK6ooVG-21" value="Motor governor" style="rounded=1;whiteSpace=wrap;html=1;fillColor=#d5e8d4;strokeColor=#82b366;" vertex="1" parent="1">
          <mxGeometry x="880" y="180" width="120" height="60" as="geometry" />
        </mxCell>
        <mxCell id="O7NxYULZaVECAKK6ooVG-24" style="edgeStyle=orthogonalEdgeStyle;rounded=0;orthogonalLoop=1;jettySize=auto;html=1;exitX=1;exitY=0.5;exitDx=0;exitDy=0;entryX=0;entryY=0.75;entryDx=0;entryDy=0;" edge="1" parent="1" source="O7NxYULZaVECAKK6ooVG-23" target="O7NxYULZaVECAKK6ooVG-21">
          <mxGeometry relative="1" as="geometry" />
        </mxCell>
        <mxCell id="O7NxYULZaVECAKK6ooVG-60" style="edgeStyle=orthogonalEdgeStyle;rounded=0;orthogonalLoop=1;jettySize=auto;html=1;exitX=0.5;exitY=1;exitDx=0;exitDy=0;endArrow=none;endFill=0;startArrow=classic;startFill=1;fillColor=#ffe6cc;strokeColor=#d79b00;strokeWidth=4;" edge="1" parent="1" source="O7NxYULZaVECAKK6ooVG-23">
          <mxGeometry relative="1" as="geometry">
            <mxPoint x="780" y="430" as="targetPoint" />
          </mxGeometry>
        </mxCell>
        <mxCell id="O7NxYULZaVECAKK6ooVG-23" value="Arming blocker" style="rounded=1;whiteSpace=wrap;html=1;" vertex="1" parent="1">
          <mxGeometry x="720" y="340" width="120" height="60" as="geometry" />
        </mxCell>
        <mxCell id="O7NxYULZaVECAKK6ooVG-55" style="edgeStyle=orthogonalEdgeStyle;rounded=0;orthogonalLoop=1;jettySize=auto;html=1;exitX=1;exitY=0.25;exitDx=0;exitDy=0;entryX=0;entryY=0.75;entryDx=0;entryDy=0;" edge="1" parent="1" source="O7NxYULZaVECAKK6ooVG-25" target="O7NxYULZaVECAKK6ooVG-17">
          <mxGeometry relative="1" as="geometry" />
        </mxCell>
        <mxCell id="O7NxYULZaVECAKK6ooVG-56" style="edgeStyle=orthogonalEdgeStyle;rounded=0;orthogonalLoop=1;jettySize=auto;html=1;exitX=1;exitY=0.5;exitDx=0;exitDy=0;entryX=0;entryY=0.75;entryDx=0;entryDy=0;" edge="1" parent="1" source="O7NxYULZaVECAKK6ooVG-25" target="O7NxYULZaVECAKK6ooVG-19">
          <mxGeometry relative="1" as="geometry">
            <Array as="points">
              <mxPoint x="700" y="370" />
              <mxPoint x="700" y="225" />
            </Array>
          </mxGeometry>
        </mxCell>
        <mxCell id="O7NxYULZaVECAKK6ooVG-57" style="edgeStyle=orthogonalEdgeStyle;rounded=0;orthogonalLoop=1;jettySize=auto;html=1;exitX=1;exitY=0.75;exitDx=0;exitDy=0;entryX=0;entryY=0.75;entryDx=0;entryDy=0;" edge="1" parent="1" source="O7NxYULZaVECAKK6ooVG-25" target="O7NxYULZaVECAKK6ooVG-23">
          <mxGeometry relative="1" as="geometry" />
        </mxCell>
        <mxCell id="O7NxYULZaVECAKK6ooVG-77" style="edgeStyle=orthogonalEdgeStyle;rounded=0;orthogonalLoop=1;jettySize=auto;html=1;exitX=0.5;exitY=1;exitDx=0;exitDy=0;fillColor=#f8cecc;strokeColor=#b85450;strokeWidth=2;" edge="1" parent="1" source="O7NxYULZaVECAKK6ooVG-25">
          <mxGeometry relative="1" as="geometry">
            <mxPoint x="490" y="420" as="targetPoint" />
            <Array as="points">
              <mxPoint x="460" y="420" />
            </Array>
          </mxGeometry>
        </mxCell>
        <mxCell id="O7NxYULZaVECAKK6ooVG-25" value="Commander" style="rounded=1;whiteSpace=wrap;html=1;fillColor=#d5e8d4;strokeColor=#82b366;" vertex="1" parent="1">
          <mxGeometry x="400" y="340" width="120" height="60" as="geometry" />
        </mxCell>
        <mxCell id="O7NxYULZaVECAKK6ooVG-36" style="edgeStyle=orthogonalEdgeStyle;rounded=0;orthogonalLoop=1;jettySize=auto;html=1;exitX=1;exitY=0.5;exitDx=0;exitDy=0;entryX=0;entryY=0.5;entryDx=0;entryDy=0;" edge="1" parent="1" source="O7NxYULZaVECAKK6ooVG-29" target="O7NxYULZaVECAKK6ooVG-25">
          <mxGeometry relative="1" as="geometry" />
        </mxCell>
        <mxCell id="O7NxYULZaVECAKK6ooVG-139" style="edgeStyle=orthogonalEdgeStyle;rounded=0;orthogonalLoop=1;jettySize=auto;html=1;exitX=1;exitY=0.75;exitDx=0;exitDy=0;entryX=0;entryY=0.75;entryDx=0;entryDy=0;" edge="1" parent="1" source="O7NxYULZaVECAKK6ooVG-29" target="O7NxYULZaVECAKK6ooVG-25">
          <mxGeometry relative="1" as="geometry">
            <Array as="points">
              <mxPoint x="390" y="425" />
              <mxPoint x="390" y="385" />
            </Array>
          </mxGeometry>
        </mxCell>
        <mxCell id="O7NxYULZaVECAKK6ooVG-140" style="edgeStyle=orthogonalEdgeStyle;rounded=0;orthogonalLoop=1;jettySize=auto;html=1;exitX=1;exitY=0.25;exitDx=0;exitDy=0;entryX=0;entryY=0.25;entryDx=0;entryDy=0;" edge="1" parent="1" source="O7NxYULZaVECAKK6ooVG-29" target="O7NxYULZaVECAKK6ooVG-25">
          <mxGeometry relative="1" as="geometry">
            <Array as="points">
              <mxPoint x="370" y="395" />
              <mxPoint x="370" y="355" />
            </Array>
          </mxGeometry>
        </mxCell>
        <mxCell id="O7NxYULZaVECAKK6ooVG-29" value="RC-mapper" style="rounded=1;whiteSpace=wrap;html=1;fillColor=#d5e8d4;strokeColor=#82b366;" vertex="1" parent="1">
          <mxGeometry x="240" y="380" width="120" height="60" as="geometry" />
        </mxCell>
        <mxCell id="O7NxYULZaVECAKK6ooVG-31" value="" style="edgeStyle=orthogonalEdgeStyle;rounded=0;orthogonalLoop=1;jettySize=auto;html=1;" edge="1" parent="1" source="O7NxYULZaVECAKK6ooVG-30" target="O7NxYULZaVECAKK6ooVG-1">
          <mxGeometry relative="1" as="geometry" />
        </mxCell>
        <mxCell id="O7NxYULZaVECAKK6ooVG-30" value="I2C 0&lt;br&gt;ICM 20948&lt;br&gt;sensor" style="ellipse;whiteSpace=wrap;html=1;aspect=fixed;fillColor=#f5f5f5;fontColor=#333333;strokeColor=#666666;" vertex="1" parent="1">
          <mxGeometry x="-20" y="130" width="80" height="80" as="geometry" />
        </mxCell>
        <mxCell id="O7NxYULZaVECAKK6ooVG-32" value="PIO 0&lt;br&gt;DShot ESC&lt;br&gt;Driver" style="ellipse;whiteSpace=wrap;html=1;aspect=fixed;fillColor=#f5f5f5;fontColor=#333333;strokeColor=#666666;" vertex="1" parent="1">
          <mxGeometry x="1020" y="170" width="80" height="80" as="geometry" />
        </mxCell>
        <mxCell id="O7NxYULZaVECAKK6ooVG-48" style="edgeStyle=orthogonalEdgeStyle;rounded=0;orthogonalLoop=1;jettySize=auto;html=1;exitX=0.5;exitY=1;exitDx=0;exitDy=0;entryX=0.5;entryY=1;entryDx=0;entryDy=0;" edge="1" parent="1" source="O7NxYULZaVECAKK6ooVG-37" target="O7NxYULZaVECAKK6ooVG-38">
          <mxGeometry relative="1" as="geometry" />
        </mxCell>
        <mxCell id="O7NxYULZaVECAKK6ooVG-94" style="edgeStyle=orthogonalEdgeStyle;rounded=0;orthogonalLoop=1;jettySize=auto;html=1;exitX=0.5;exitY=0;exitDx=0;exitDy=0;entryX=0.25;entryY=1;entryDx=0;entryDy=0;" edge="1" parent="1" source="O7NxYULZaVECAKK6ooVG-37" target="O7NxYULZaVECAKK6ooVG-25">
          <mxGeometry relative="1" as="geometry">
            <Array as="points">
              <mxPoint x="300" y="460" />
              <mxPoint x="430" y="460" />
            </Array>
          </mxGeometry>
        </mxCell>
        <mxCell id="O7NxYULZaVECAKK6ooVG-99" style="edgeStyle=orthogonalEdgeStyle;rounded=0;orthogonalLoop=1;jettySize=auto;html=1;exitX=0.25;exitY=0;exitDx=0;exitDy=0;entryX=0.5;entryY=1;entryDx=0;entryDy=0;" edge="1" parent="1" source="O7NxYULZaVECAKK6ooVG-37" target="O7NxYULZaVECAKK6ooVG-4">
          <mxGeometry relative="1" as="geometry">
            <mxPoint x="140" y="340" as="targetPoint" />
            <Array as="points">
              <mxPoint x="270" y="460" />
              <mxPoint x="220" y="460" />
              <mxPoint x="220" y="360" />
              <mxPoint x="140" y="360" />
            </Array>
          </mxGeometry>
        </mxCell>
        <mxCell id="O7NxYULZaVECAKK6ooVG-124" style="edgeStyle=orthogonalEdgeStyle;rounded=0;orthogonalLoop=1;jettySize=auto;html=1;exitX=1;exitY=0.5;exitDx=0;exitDy=0;fillColor=#dae8fc;strokeColor=#6c8ebf;strokeWidth=2;" edge="1" parent="1" source="O7NxYULZaVECAKK6ooVG-37">
          <mxGeometry relative="1" as="geometry">
            <mxPoint x="390" y="510" as="targetPoint" />
          </mxGeometry>
        </mxCell>
        <mxCell id="O7NxYULZaVECAKK6ooVG-37" value="MAVLink RX server" style="rounded=1;whiteSpace=wrap;html=1;" vertex="1" parent="1">
          <mxGeometry x="240" y="480" width="120" height="60" as="geometry" />
        </mxCell>
        <mxCell id="O7NxYULZaVECAKK6ooVG-52" style="edgeStyle=orthogonalEdgeStyle;rounded=0;orthogonalLoop=1;jettySize=auto;html=1;exitX=0;exitY=0.5;exitDx=0;exitDy=0;endArrow=none;endFill=0;startArrow=classic;startFill=1;fillColor=#ffe6cc;strokeColor=#d79b00;strokeWidth=4;" edge="1" parent="1" source="O7NxYULZaVECAKK6ooVG-38">
          <mxGeometry relative="1" as="geometry">
            <mxPoint x="410" y="510" as="targetPoint" />
          </mxGeometry>
        </mxCell>
        <mxCell id="O7NxYULZaVECAKK6ooVG-54" value="" style="edgeStyle=orthogonalEdgeStyle;rounded=0;orthogonalLoop=1;jettySize=auto;html=1;" edge="1" parent="1" source="O7NxYULZaVECAKK6ooVG-38" target="O7NxYULZaVECAKK6ooVG-40">
          <mxGeometry relative="1" as="geometry" />
        </mxCell>
        <mxCell id="O7NxYULZaVECAKK6ooVG-129" style="edgeStyle=orthogonalEdgeStyle;rounded=0;orthogonalLoop=1;jettySize=auto;html=1;exitX=0.5;exitY=0;exitDx=0;exitDy=0;fillColor=#dae8fc;strokeColor=#6c8ebf;endArrow=none;endFill=0;startArrow=classic;startFill=1;strokeWidth=2;" edge="1" parent="1" source="O7NxYULZaVECAKK6ooVG-38">
          <mxGeometry relative="1" as="geometry">
            <mxPoint x="470" y="460" as="targetPoint" />
            <Array as="points">
              <mxPoint x="500" y="460" />
            </Array>
          </mxGeometry>
        </mxCell>
        <mxCell id="O7NxYULZaVECAKK6ooVG-38" value="MAVLink TX server&lt;br&gt;(+ tasks for streams)" style="rounded=1;whiteSpace=wrap;html=1;" vertex="1" parent="1">
          <mxGeometry x="440" y="480" width="120" height="60" as="geometry" />
        </mxCell>
        <mxCell id="O7NxYULZaVECAKK6ooVG-42" value="" style="edgeStyle=orthogonalEdgeStyle;rounded=0;orthogonalLoop=1;jettySize=auto;html=1;" edge="1" parent="1" source="O7NxYULZaVECAKK6ooVG-39" target="O7NxYULZaVECAKK6ooVG-37">
          <mxGeometry relative="1" as="geometry" />
        </mxCell>
        <mxCell id="O7NxYULZaVECAKK6ooVG-39" value="UART 1&lt;br&gt;Offboard RX" style="ellipse;whiteSpace=wrap;html=1;aspect=fixed;fillColor=#f5f5f5;fontColor=#333333;strokeColor=#666666;" vertex="1" parent="1">
          <mxGeometry x="140" y="470" width="80" height="80" as="geometry" />
        </mxCell>
        <mxCell id="O7NxYULZaVECAKK6ooVG-40" value="UART 1&lt;br&gt;Offboard TX" style="ellipse;whiteSpace=wrap;html=1;aspect=fixed;fillColor=#f5f5f5;fontColor=#333333;strokeColor=#666666;" vertex="1" parent="1">
          <mxGeometry x="580" y="470" width="80" height="80" as="geometry" />
        </mxCell>
        <mxCell id="O7NxYULZaVECAKK6ooVG-67" value="" style="edgeStyle=orthogonalEdgeStyle;rounded=0;orthogonalLoop=1;jettySize=auto;html=1;startArrow=classic;startFill=1;" edge="1" parent="1" source="O7NxYULZaVECAKK6ooVG-62" target="O7NxYULZaVECAKK6ooVG-63">
          <mxGeometry relative="1" as="geometry" />
        </mxCell>
        <mxCell id="O7NxYULZaVECAKK6ooVG-70" style="edgeStyle=orthogonalEdgeStyle;rounded=0;orthogonalLoop=1;jettySize=auto;html=1;exitX=1;exitY=0.5;exitDx=0;exitDy=0;startArrow=classic;startFill=1;fillColor=#ffe6cc;strokeColor=#d79b00;strokeWidth=4;" edge="1" parent="1" source="O7NxYULZaVECAKK6ooVG-62">
          <mxGeometry relative="1" as="geometry">
            <mxPoint x="1020" y="80" as="targetPoint" />
          </mxGeometry>
        </mxCell>
        <mxCell id="O7NxYULZaVECAKK6ooVG-96" style="edgeStyle=orthogonalEdgeStyle;rounded=0;orthogonalLoop=1;jettySize=auto;html=1;exitX=0.5;exitY=1;exitDx=0;exitDy=0;fillColor=#dae8fc;strokeColor=#6c8ebf;endArrow=none;endFill=0;startArrow=classic;startFill=1;strokeWidth=2;" edge="1" parent="1" source="O7NxYULZaVECAKK6ooVG-62">
          <mxGeometry relative="1" as="geometry">
            <mxPoint x="880" y="130" as="targetPoint" />
            <Array as="points">
              <mxPoint x="910" y="130" />
            </Array>
          </mxGeometry>
        </mxCell>
        <mxCell id="O7NxYULZaVECAKK6ooVG-62" value="Config master" style="rounded=1;whiteSpace=wrap;html=1;" vertex="1" parent="1">
          <mxGeometry x="850" y="50" width="120" height="60" as="geometry" />
        </mxCell>
        <mxCell id="O7NxYULZaVECAKK6ooVG-63" value="FLASH&lt;br&gt;storage" style="ellipse;whiteSpace=wrap;html=1;aspect=fixed;fillColor=#f5f5f5;fontColor=#333333;strokeColor=#666666;" vertex="1" parent="1">
          <mxGeometry x="740" y="40" width="80" height="80" as="geometry" />
        </mxCell>
        <mxCell id="O7NxYULZaVECAKK6ooVG-104" style="edgeStyle=orthogonalEdgeStyle;rounded=0;orthogonalLoop=1;jettySize=auto;html=1;exitX=0.75;exitY=1;exitDx=0;exitDy=0;entryX=0.25;entryY=0;entryDx=0;entryDy=0;" edge="1" parent="1" source="O7NxYULZaVECAKK6ooVG-73" target="O7NxYULZaVECAKK6ooVG-3">
          <mxGeometry relative="1" as="geometry">
            <Array as="points">
              <mxPoint x="250" y="110" />
              <mxPoint x="270" y="110" />
            </Array>
          </mxGeometry>
        </mxCell>
        <mxCell id="O7NxYULZaVECAKK6ooVG-111" style="edgeStyle=orthogonalEdgeStyle;rounded=0;orthogonalLoop=1;jettySize=auto;html=1;exitX=0;exitY=0.25;exitDx=0;exitDy=0;fillColor=#f8cecc;strokeColor=#b85450;endArrow=none;endFill=0;startArrow=classic;startFill=1;strokeWidth=2;" edge="1" parent="1" source="O7NxYULZaVECAKK6ooVG-73">
          <mxGeometry relative="1" as="geometry">
            <mxPoint x="130" y="55" as="targetPoint" />
          </mxGeometry>
        </mxCell>
        <mxCell id="O7NxYULZaVECAKK6ooVG-73" value="Gyroscope&lt;br&gt;calibration&lt;br&gt;routine" style="rounded=1;whiteSpace=wrap;html=1;" vertex="1" parent="1">
          <mxGeometry x="160" y="40" width="120" height="60" as="geometry" />
        </mxCell>
        <mxCell id="O7NxYULZaVECAKK6ooVG-103" style="edgeStyle=orthogonalEdgeStyle;rounded=0;orthogonalLoop=1;jettySize=auto;html=1;exitX=0.5;exitY=1;exitDx=0;exitDy=0;entryX=0.75;entryY=0;entryDx=0;entryDy=0;" edge="1" parent="1" source="O7NxYULZaVECAKK6ooVG-74" target="O7NxYULZaVECAKK6ooVG-3">
          <mxGeometry relative="1" as="geometry">
            <Array as="points">
              <mxPoint x="380" y="120" />
              <mxPoint x="330" y="120" />
            </Array>
          </mxGeometry>
        </mxCell>
        <mxCell id="O7NxYULZaVECAKK6ooVG-112" style="edgeStyle=orthogonalEdgeStyle;rounded=0;orthogonalLoop=1;jettySize=auto;html=1;exitX=0;exitY=0.25;exitDx=0;exitDy=0;fillColor=#f8cecc;strokeColor=#b85450;endArrow=none;endFill=0;startArrow=classic;startFill=1;strokeWidth=2;" edge="1" parent="1" source="O7NxYULZaVECAKK6ooVG-74">
          <mxGeometry relative="1" as="geometry">
            <mxPoint x="290" y="55" as="targetPoint" />
          </mxGeometry>
        </mxCell>
        <mxCell id="O7NxYULZaVECAKK6ooVG-74" value="Accelerometer&lt;br&gt;calibration&lt;br&gt;routine" style="rounded=1;whiteSpace=wrap;html=1;" vertex="1" parent="1">
          <mxGeometry x="320" y="40" width="120" height="60" as="geometry" />
        </mxCell>
        <mxCell id="O7NxYULZaVECAKK6ooVG-88" style="edgeStyle=orthogonalEdgeStyle;rounded=0;orthogonalLoop=1;jettySize=auto;html=1;exitX=0;exitY=0.5;exitDx=0;exitDy=0;endArrow=none;endFill=0;startArrow=classic;startFill=1;fillColor=#ffe6cc;strokeColor=#d79b00;strokeWidth=4;" edge="1" parent="1" source="O7NxYULZaVECAKK6ooVG-84">
          <mxGeometry relative="1" as="geometry">
            <mxPoint x="370" y="290" as="targetPoint" />
          </mxGeometry>
        </mxCell>
        <mxCell id="O7NxYULZaVECAKK6ooVG-132" style="edgeStyle=orthogonalEdgeStyle;rounded=0;orthogonalLoop=1;jettySize=auto;html=1;exitX=0.5;exitY=1;exitDx=0;exitDy=0;entryX=0.5;entryY=0;entryDx=0;entryDy=0;" edge="1" parent="1" source="O7NxYULZaVECAKK6ooVG-84" target="O7NxYULZaVECAKK6ooVG-25">
          <mxGeometry relative="1" as="geometry" />
        </mxCell>
        <mxCell id="O7NxYULZaVECAKK6ooVG-84" value="Flight detector" style="rounded=1;whiteSpace=wrap;html=1;" vertex="1" parent="1">
          <mxGeometry x="400" y="260" width="120" height="60" as="geometry" />
        </mxCell>
        <mxCell id="O7NxYULZaVECAKK6ooVG-92" value="" style="edgeStyle=orthogonalEdgeStyle;rounded=0;orthogonalLoop=1;jettySize=auto;html=1;" edge="1" parent="1" source="O7NxYULZaVECAKK6ooVG-90" target="O7NxYULZaVECAKK6ooVG-91">
          <mxGeometry relative="1" as="geometry" />
        </mxCell>
        <mxCell id="O7NxYULZaVECAKK6ooVG-90" value="UART 0&lt;br&gt;SBus RC&lt;br&gt;receiver" style="ellipse;whiteSpace=wrap;html=1;aspect=fixed;fillColor=#f5f5f5;fontColor=#333333;strokeColor=#666666;" vertex="1" parent="1">
          <mxGeometry x="-20" y="370" width="80" height="80" as="geometry" />
        </mxCell>
        <mxCell id="O7NxYULZaVECAKK6ooVG-93" value="" style="edgeStyle=orthogonalEdgeStyle;rounded=0;orthogonalLoop=1;jettySize=auto;html=1;" edge="1" parent="1" source="O7NxYULZaVECAKK6ooVG-91" target="O7NxYULZaVECAKK6ooVG-29">
          <mxGeometry relative="1" as="geometry" />
        </mxCell>
        <mxCell id="O7NxYULZaVECAKK6ooVG-91" value="SBus receiver" style="rounded=1;whiteSpace=wrap;html=1;fillColor=#d5e8d4;strokeColor=#82b366;" vertex="1" parent="1">
          <mxGeometry x="80" y="380" width="120" height="60" as="geometry" />
        </mxCell>
        <mxCell id="O7NxYULZaVECAKK6ooVG-106" style="edgeStyle=orthogonalEdgeStyle;rounded=0;orthogonalLoop=1;jettySize=auto;html=1;exitX=0.5;exitY=0;exitDx=0;exitDy=0;entryX=0.5;entryY=1;entryDx=0;entryDy=0;" edge="1" parent="1" source="O7NxYULZaVECAKK6ooVG-105" target="O7NxYULZaVECAKK6ooVG-2">
          <mxGeometry relative="1" as="geometry" />
        </mxCell>
        <mxCell id="O7NxYULZaVECAKK6ooVG-130" style="edgeStyle=orthogonalEdgeStyle;rounded=0;orthogonalLoop=1;jettySize=auto;html=1;exitX=0;exitY=0.75;exitDx=0;exitDy=0;fillColor=#f8cecc;strokeColor=#b85450;startArrow=classic;startFill=1;endArrow=none;endFill=0;strokeWidth=2;" edge="1" parent="1" source="O7NxYULZaVECAKK6ooVG-105">
          <mxGeometry relative="1" as="geometry">
            <mxPoint x="210" y="344.7142857142858" as="targetPoint" />
          </mxGeometry>
        </mxCell>
        <mxCell id="O7NxYULZaVECAKK6ooVG-105" value="Magnetometer&lt;br&gt;calibration&lt;br&gt;routine" style="rounded=1;whiteSpace=wrap;html=1;" vertex="1" parent="1">
          <mxGeometry x="240" y="300" width="120" height="60" as="geometry" />
        </mxCell>
        <mxCell id="O7NxYULZaVECAKK6ooVG-109" value="Runs on high priority executor" style="rounded=1;whiteSpace=wrap;html=1;fillColor=#d5e8d4;strokeColor=#82b366;arcSize=50;" vertex="1" parent="1">
          <mxGeometry x="500" y="50" width="190" height="30" as="geometry" />
        </mxCell>
        <mxCell id="O7NxYULZaVECAKK6ooVG-110" value="Runs on low priority executor" style="rounded=1;whiteSpace=wrap;html=1;arcSize=50;" vertex="1" parent="1">
          <mxGeometry x="500" y="80" width="190" height="30" as="geometry" />
        </mxCell>
        <mxCell id="O7NxYULZaVECAKK6ooVG-116" value="" style="edgeStyle=orthogonalEdgeStyle;rounded=0;orthogonalLoop=1;jettySize=auto;html=1;" edge="1" parent="1" source="O7NxYULZaVECAKK6ooVG-113" target="O7NxYULZaVECAKK6ooVG-115">
          <mxGeometry relative="1" as="geometry" />
        </mxCell>
        <mxCell id="O7NxYULZaVECAKK6ooVG-127" style="edgeStyle=orthogonalEdgeStyle;rounded=0;orthogonalLoop=1;jettySize=auto;html=1;exitX=0.5;exitY=1;exitDx=0;exitDy=0;endArrow=none;endFill=0;startArrow=classic;startFill=1;fillColor=#ffe6cc;strokeColor=#d79b00;strokeWidth=4;" edge="1" parent="1" source="O7NxYULZaVECAKK6ooVG-113">
          <mxGeometry relative="1" as="geometry">
            <mxPoint x="940" y="370" as="targetPoint" />
          </mxGeometry>
        </mxCell>
        <mxCell id="O7NxYULZaVECAKK6ooVG-113" value="Logging" style="rounded=1;whiteSpace=wrap;html=1;" vertex="1" parent="1">
          <mxGeometry x="880" y="280" width="120" height="60" as="geometry" />
        </mxCell>
        <mxCell id="O7NxYULZaVECAKK6ooVG-118" value="" style="edgeStyle=orthogonalEdgeStyle;rounded=0;orthogonalLoop=1;jettySize=auto;html=1;" edge="1" parent="1" source="O7NxYULZaVECAKK6ooVG-114" target="O7NxYULZaVECAKK6ooVG-117">
          <mxGeometry relative="1" as="geometry" />
        </mxCell>
        <mxCell id="O7NxYULZaVECAKK6ooVG-128" style="edgeStyle=orthogonalEdgeStyle;rounded=0;orthogonalLoop=1;jettySize=auto;html=1;exitX=0.5;exitY=1;exitDx=0;exitDy=0;fillColor=#ffe6cc;strokeColor=#d79b00;endArrow=none;endFill=0;startArrow=classic;startFill=1;strokeWidth=4;" edge="1" parent="1" source="O7NxYULZaVECAKK6ooVG-114">
          <mxGeometry relative="1" as="geometry">
            <mxPoint x="940" y="469.9999999999999" as="targetPoint" />
          </mxGeometry>
        </mxCell>
        <mxCell id="O7NxYULZaVECAKK6ooVG-114" value="Status printer" style="rounded=1;whiteSpace=wrap;html=1;" vertex="1" parent="1">
          <mxGeometry x="880" y="380" width="120" height="60" as="geometry" />
        </mxCell>
        <mxCell id="O7NxYULZaVECAKK6ooVG-115" value="SPI 0&lt;br&gt;SD Card&lt;br&gt;Driver" style="ellipse;whiteSpace=wrap;html=1;aspect=fixed;fillColor=#f5f5f5;fontColor=#333333;strokeColor=#666666;" vertex="1" parent="1">
          <mxGeometry x="1020" y="270" width="80" height="80" as="geometry" />
        </mxCell>
        <mxCell id="O7NxYULZaVECAKK6ooVG-117" value="SWD" style="ellipse;whiteSpace=wrap;html=1;aspect=fixed;fillColor=#f5f5f5;fontColor=#333333;strokeColor=#666666;" vertex="1" parent="1">
          <mxGeometry x="1020" y="370" width="80" height="80" as="geometry" />
        </mxCell>
        <mxCell id="O7NxYULZaVECAKK6ooVG-123" style="edgeStyle=orthogonalEdgeStyle;rounded=0;orthogonalLoop=1;jettySize=auto;html=1;exitX=1;exitY=0.5;exitDx=0;exitDy=0;fillColor=#ffe6cc;strokeColor=#d79b00;strokeWidth=4;startArrow=classic;startFill=1;" edge="1" parent="1" source="O7NxYULZaVECAKK6ooVG-122">
          <mxGeometry relative="1" as="geometry">
            <mxPoint x="880" y="510" as="targetPoint" />
          </mxGeometry>
        </mxCell>
        <mxCell id="O7NxYULZaVECAKK6ooVG-122" value="System&lt;br&gt;variables and&lt;br&gt;parameters" style="shape=hexagon;perimeter=hexagonPerimeter2;whiteSpace=wrap;html=1;fixedSize=1;fillColor=#ffe6cc;strokeColor=#d79b00;" vertex="1" parent="1">
          <mxGeometry x="710" y="480" width="120" height="60" as="geometry" />
        </mxCell>
      </root>
    </mxGraphModel>
  </diagram>
</mxfile>
